# xmcd
#
# Track frame offsets:
#	183
#	8980
#	18958
#	26008
#	35890
#	48735
#	56725
#	68803
#	76778
#	88563
#	95978
#	104780
#	116420
#	127318
#	135720
#	146805
#	161150
#	171690
#	180543
#	193393
#	201190
#	210665
#
# Disc length: 2934 seconds
#
# Revision: 1
# Processed by: cddbd v1.5.2PL0 Copyright (c) Steve Scherf et al.
# Submitted via: EZCDAudioConverter 6.0.5.1
#
DISCID=5b0b7416
DTITLE=Doris Day - The Best Of Doris Day
DYEAR=2002
DGENRE=Pop
TTITLE0=My Blue Heaven
TTITLE1=September In The Rain
TTITLE2='S Wonderful
TTITLE3=You Brought A New Kind Of Love To Me
TTITLE4=Star Dust
TTITLE5=Blue Skies
TTITLE6=I've Gotta Sing Away These Blues
TTITLE7=I Can't Give You Anything But Love
TTITLE8=Sentimental Journey
TTITLE9=I Could Write A Book
TTITLE10=Singin' In The Rain
TTITLE11=I'm A Big Girl Now
TTITLE12=S'posin'
TTITLE13=You Oughta Be In Pictures
TTITLE14=I'm In The Mood For Love
TTITLE15=Be Anything But Be Mine
TTITLE16=I Got It Bad (And That Ain't Good)
TTITLE17=Light Your Lamp
TTITLE18=A Hundred Years From Today
TTITLE19=Just You, Just Me
TTITLE20=Don't Worry 'Bout Me
TTITLE21=Cryin' My Heart Out For You
EXTD=
EXTT0=
EXTT1=
EXTT2=
EXTT3=
EXTT4=
EXTT5=
EXTT6=
EXTT7=
EXTT8=
EXTT9=
EXTT10=
EXTT11=
EXTT12=
EXTT13=
EXTT14=
EXTT15=
EXTT16=
EXTT17=
EXTT18=
EXTT19=
EXTT20=
EXTT21=
PLAYORDER=
